<svg width="20" height="20" viewBox="0 0 20 20" fill="none" xmlns="http://www.w3.org/2000/svg">
<path fill-rule="evenodd" clip-rule="evenodd" d="M10 20C15.5228 20 20 15.5228 20 10C20 4.47715 15.5228 0 10 0C4.47715 0 0 4.47715 0 10C0 15.5228 4.47715 20 10 20ZM6.66667 8.88889C7.28032 8.88889 7.77778 8.39143 7.77778 7.77778C7.77778 7.16413 7.28032 6.66667 6.66667 6.66667C6.05302 6.66667 5.55556 7.16413 5.55556 7.77778C5.55556 8.39143 6.05302 8.88889 6.66667 8.88889ZM13.3333 8.88889C13.947 8.88889 14.4444 8.39143 14.4444 7.77778C14.4444 7.16413 13.947 6.66667 13.3333 6.66667C12.7197 6.66667 12.2222 7.16413 12.2222 7.77778C12.2222 8.39143 12.7197 8.88889 13.3333 8.88889ZM10 15.5556C12.4546 15.5556 14.4444 13.5657 14.4444 11.1111H5.55556C5.55556 13.5657 7.5454 15.5556 10 15.5556Z" fill="#2F846F"/>
</svg>
