<svg width="20" height="20" viewBox="0 0 20 20" fill="none" xmlns="http://www.w3.org/2000/svg">
<path d="M16.0114 0H4.34766V16.6666H19.9989V3.82166L16.0114 0ZM8.69525 4.16666H13.0428C13.5228 4.16666 13.9123 4.53998 13.9123 4.99998C13.9123 5.45998 13.5228 5.8333 13.0428 5.8333H8.69525C8.21528 5.8333 7.82575 5.45998 7.82575 4.99998C7.82575 4.53998 8.21528 4.16666 8.69525 4.16666ZM15.6514 12.5H8.69525C8.21528 12.5 7.82575 12.1266 7.82575 11.6666C7.82575 11.2066 8.21528 10.8333 8.69525 10.8333H15.6514C16.1314 10.8333 16.5209 11.2066 16.5209 11.6666C16.5209 12.1266 16.1314 12.5 15.6514 12.5ZM15.6514 9.16664H8.69525C8.21528 9.16664 7.82575 8.79332 7.82575 8.33333C7.82575 7.87333 8.21528 7.49997 8.69525 7.49997H15.6514C16.1314 7.49997 16.5209 7.87329 16.5209 8.33329C16.5209 8.79329 16.1314 9.16664 15.6514 9.16664Z" fill="#2F846F"/>
<path d="M2.60855 3.33594H0V20.0026H14.7817V18.3359H2.60855V3.33594Z" fill="#2F846F"/>
</svg>
