<svg width="20" height="20" viewBox="0 0 20 20" fill="none" xmlns="http://www.w3.org/2000/svg">
<path d="M0 11.25C0 10.56 0.56 10 1.25 10H3.75C4.44 10 5 10.56 5 11.25V18.75C5 19.44 4.44 20 3.75 20H1.25C0.918479 20 0.600537 19.8683 0.366117 19.6339C0.131696 19.3995 0 19.0815 0 18.75V11.25ZM7.5 6.25C7.5 5.56 8.06 5 8.75 5H11.25C11.94 5 12.5 5.56 12.5 6.25V18.75C12.5 19.44 11.94 20 11.25 20H8.75C8.41848 20 8.10054 19.8683 7.86612 19.6339C7.6317 19.3995 7.5 19.0815 7.5 18.75V6.25ZM15 1.25C15 0.56 15.56 0 16.25 0H18.75C19.44 0 20 0.56 20 1.25V18.75C20 19.44 19.44 20 18.75 20H16.25C15.9185 20 15.6005 19.8683 15.3661 19.6339C15.1317 19.3995 15 19.0815 15 18.75V1.25Z" fill="#2F846F"/>
</svg>
